<svg xmlns="http://www.w3.org/2000/svg" width="4669" height="1265.8" viewBox="0 0 4669 1265.8"><g stroke="#000" stroke-width="66" stroke-miterlimit="10"><path fill="none" d="M36 32.8h4600v1200H36z"/><path d="M33 33.8h1200v1200H33z"/></g><path d="M244.5 867.8V395.3h104.7c49.4 0 84.2 10.1 104.5 30.3 20.3 20.2 30.5 55.1 30.5 104.7v185.6c0 51.9-10.3 90.1-31 114.8-20.7 24.7-55.5 37-104.5 37H244.5zm67.5-50.7h37.2c11.1 0 20.6-1 28.5-3 7.9-2 14.3-5.7 19.2-11.1 4.9-5.4 8.8-10.5 11.6-15.3 2.8-4.8 4.8-12.3 5.9-22.5 1.1-10.2 1.8-18.6 2-25.2.2-6.6.3-16.8.3-30.7V547.1c0-8.6 0-15.5-.1-20.6-.1-5.1-.4-11.1-.8-18.1-.4-6.9-1.1-12.4-2-16.5-.9-4-2.1-8.6-3.7-13.6s-3.6-8.9-5.9-11.7c-2.4-2.8-5.3-5.8-8.7-8.8-3.4-3.1-7.4-5.4-11.9-6.9s-9.7-2.7-15.7-3.7-12.7-1.5-20-1.5H312v371.4zm340.9 55.4c-25.7 0-47.5-6.1-65.5-18.2s-31.3-28.5-39.8-49.2c-8.5-20.7-12.8-44.8-12.8-72.4V530.3c0-43.4 9.8-77.6 29.5-102.4 19.7-24.9 49.2-37.3 88.6-37.3 39.2 0 68.7 12.5 88.5 37.4 19.8 25 29.7 59.1 29.7 102.3v202.5c0 42.4-10.1 76.2-30.2 101.6-20.1 25.4-49.5 38.1-88 38.1zm0-55.4c33.8 0 50.6-28.1 50.6-84.4V530.3c0-9.5-.4-18-1.1-25.4-.7-7.5-2.2-15-4.4-22.7-2.2-7.6-5.1-14-8.7-19.1-3.6-5.1-8.5-9.2-14.6-12.4-6.2-3.2-13.4-4.7-21.9-4.7-8.4 0-15.7 1.6-21.9 4.7-6.2 3.2-11 7.3-14.6 12.4-3.6 5.1-6.5 11.5-8.7 19.1-2.2 7.6-3.7 15.2-4.4 22.7-.7 7.5-1.1 16-1.1 25.4v202.5c0 11.1.7 21.3 2.2 30.6 1.5 9.3 4 18.2 7.6 26.6 3.6 8.4 8.8 15.1 15.7 19.9 7.2 4.8 15.5 7.2 25.3 7.2zM944 872.5c-16.2 0-30.8-2.7-44-8.2s-24.3-12.9-33.4-22.4c-9.1-9.5-16.7-20.9-22.9-34.1-6.2-13.3-10.8-27.6-13.6-43-2.8-15.4-4.2-31.7-4.2-48.9V564c0-19.3 1.1-37.2 3.4-53.7 2.3-16.4 6.2-32.2 11.9-47.2 5.6-15 12.8-27.8 21.6-38.4 8.8-10.5 20.1-18.9 33.9-25 13.8-6.2 29.6-9.2 47.3-9.2 38 0 67.1 10.8 87.5 32.3 20.4 21.5 30.6 51.7 30.6 90.6h-67.5c0-22.5-3.7-39.4-10.9-50.6-7.3-11.2-20.5-16.9-39.7-16.9-33.8 0-50.6 33.8-50.6 101.3v67.5c13-22.5 35.5-33.8 67.5-33.8 19 0 35.2 3.3 48.6 9.9s23.9 16.2 31.4 28.7c7.5 12.6 12.9 26.7 16.2 42.3 3.3 15.6 5 33.7 5 54.1 0 22.1-2.2 42.4-6.6 60.8-4.4 18.4-11.2 34.9-20.3 49.4-9.1 14.6-21.4 26-36.9 34.1-15.4 8.2-33.5 12.3-54.3 12.3zM919.3 810c6.9 4.7 15.1 7.1 24.8 7.1 9.7 0 17.9-2.4 24.8-7.1s12.1-11.3 15.7-19.8c3.6-8.4 6.2-17.4 7.8-26.8 1.6-9.4 2.4-19.6 2.4-30.7v-15.2c0-3.5-.1-8.3-.4-14.6s-.6-11.2-1.1-14.6c-.4-3.4-1.1-7.8-1.8-13.1s-1.8-9.4-3-12.3c-1.2-2.9-2.8-6.3-4.6-10.3s-4-7-6.5-9.1c-2.5-2.1-5.3-4.2-8.4-6.3s-6.9-3.6-11.1-4.5c-4.2-.9-8.8-1.3-13.7-1.3-21.8 0-38.7 11.3-50.6 33.8v67.5c0 11.3.8 21.5 2.4 30.8 1.6 9.3 4.2 18.2 7.8 26.6 3.4 8.6 8.6 15.2 15.5 19.9z" fill="#FFF"/><path fill="none" stroke="#FFF" stroke-width="66" stroke-miterlimit="10" d="M1106 326.8v-200m-167 33h200m-980 781v200m167-33H126"/><path d="M1691.5 895.6v-525h116.3c54.9 0 93.6 11.2 116.2 33.7 22.6 22.5 33.8 61.2 33.8 116.3v206.3c0 57.6-11.5 100.1-34.4 127.6-23 27.4-61.7 41.2-116.2 41.2h-115.7zm75-56.3h41.3c12.3 0 22.9-1.1 31.6-3.4 8.8-2.2 15.9-6.3 21.4-12.3 5.5-6 9.8-11.6 12.9-17 3.1-5.4 5.3-13.7 6.6-25 1.3-11.3 2-20.7 2.2-28 .2-7.3.3-18.7.3-34.1V539.3c0-9.6-.1-17.2-.1-22.9-.1-5.7-.4-12.4-.9-20.1-.5-7.7-1.2-13.8-2.2-18.3-1-4.5-2.3-9.5-4.1-15.1s-4-9.9-6.6-13c-2.6-3.1-5.9-6.4-9.7-9.8-3.8-3.4-8.2-6-13.2-7.6-5-1.7-10.8-3-17.4-4.1-6.6-1.1-14.1-1.6-22.3-1.6h-39.8v412.5zm214.7 56.3l112.5-525h75l112.5 525h-75l-28.1-131.3h-93.8l-28.1 131.3h-75zm112.5-187.5h75l-37.5-225-37.5 225zm229.7 187.5v-525h93.8c55.9 0 97.9 10.8 126.3 32.5 28.3 21.7 42.5 57.7 42.5 108.1 0 31.3-5.6 57.4-16.7 78.5s-27.4 35.5-48.9 43.4l84.4 262.5h-74.4l-75.6-243.8h-56.3v243.8h-75.1zm75-300h18.8c31.2 0 54.7-6.6 70.3-19.8 15.6-13.2 23.4-34.7 23.4-64.6s-7.8-51.4-23.4-64.6c-15.6-13.2-39.1-19.8-70.3-19.8h-18.8v168.8zm309.1 300l-93.8-525h75l37.5 243.8 19 150 18.5-150 37.5-243.8h75l37.5 243.8 18.5 150 19-150 37.5-243.8h75l-93.8 525h-75l-37.5-243.8-18.8-150-18.8 150-37.5 243.8h-74.8zm400.5 0v-525h75v525h-75zm155.3 0v-525h56.3l131.3 324.6V370.6h75v525h-53.3l-134.2-349.2v349.2h-75.1zm459.4 5.2c-28.5 0-52.8-6.7-72.8-20.2s-34.8-31.7-44.2-54.6c-9.5-22.9-14.2-49.8-14.2-80.4v-225c0-48.2 10.9-86.2 32.8-113.8 21.9-27.6 54.7-41.5 98.4-41.5 43.6 0 76.3 13.9 98.3 41.6 22 27.7 33 65.6 33 113.7v225c0 47.1-11.2 84.7-33.5 112.9-22.5 28.2-55.1 42.3-97.8 42.3zm0-61.5c37.5 0 56.3-31.2 56.3-93.8v-225c0-10.5-.4-20-1.2-28.3-.8-8.3-2.4-16.7-4.8-25.2s-5.7-15.6-9.7-21.2c-4-5.7-9.4-10.3-16.3-13.8-6.8-3.5-14.9-5.3-24.3-5.3s-17.5 1.8-24.3 5.3c-6.8 3.5-12.3 8.1-16.3 13.8-4 5.7-7.2 12.7-9.7 21.2-2.4 8.5-4.1 16.9-4.8 25.2-.8 8.3-1.2 17.7-1.2 28.3v225c0 12.3.8 23.6 2.5 34 1.7 10.4 4.5 20.2 8.5 29.6 4 9.4 9.8 16.8 17.4 22.1 7.6 5.4 16.9 8.1 27.9 8.1zm323.4 61.5c-18 0-34.3-3-48.9-9.1s-27-14.4-37.1-24.9c-10.1-10.5-18.6-23.2-25.5-37.9-6.9-14.7-12-30.7-15.1-47.8-3.1-17.1-4.7-35.2-4.7-54.3V558.1c0-21.5 1.3-41.4 3.8-59.6 2.5-18.3 6.9-35.7 13.2-52.4 6.2-16.7 14.3-30.9 24-42.6 9.8-11.7 22.3-21 37.6-27.8 15.3-6.8 32.9-10.3 52.6-10.3 42.2 0 74.6 12 97.3 35.9 22.7 23.9 34 57.5 34 100.6h-75c0-25-4.1-43.7-12.2-56.3-8.1-12.5-22.8-18.8-44.1-18.8-37.5 0-56.3 37.5-56.3 112.5v75c14.5-25 39.5-37.5 75-37.5 21.1 0 39.1 3.7 54.1 11s26.6 18 34.9 31.9c8.3 14 14.3 29.6 18 47 3.7 17.4 5.6 37.4 5.6 60.1 0 24.6-2.4 47.1-7.3 67.5s-12.4 38.7-22.6 54.9c-10.2 16.2-23.8 28.9-41 37.9-17.1 9.2-37.3 13.7-60.3 13.7zm-27.5-69.4c7.6 5.3 16.8 7.9 27.5 7.9s19.9-2.6 27.5-7.9 13.4-12.6 17.4-22c4-9.4 6.9-19.3 8.6-29.7 1.8-10.4 2.6-21.8 2.6-34.1v-16.8c0-3.8-.1-9.2-.4-16.3s-.7-12.5-1.2-16.3c-.5-3.8-1.2-8.6-2.1-14.5s-2-10.4-3.4-13.6c-1.4-3.2-3.1-7-5.1-11.4s-4.4-7.8-7.2-10.1c-2.7-2.3-5.9-4.7-9.4-7s-7.6-4-12.3-5c-4.7-1-9.8-1.5-15.2-1.5-24.2 0-43 12.5-56.3 37.5v75c0 12.5.9 23.9 2.6 34.3 1.8 10.4 4.6 20.2 8.6 29.6 4.3 9.3 10.1 16.6 17.8 21.9z"/></svg>