<?xml version="1.0" encoding="utf-8"?>
<!-- Generator: Adobe Illustrator 16.0.0, SVG Export Plug-In . SVG Version: 6.00 Build 0)  -->
<!DOCTYPE svg PUBLIC "-//W3C//DTD SVG 1.1//EN" "http://www.w3.org/Graphics/SVG/1.1/DTD/svg11.dtd">
<svg version="1.1" xmlns="http://www.w3.org/2000/svg" xmlns:xlink="http://www.w3.org/1999/xlink" x="0px" y="0px" width="4669px"
	 height="1265.8px" viewBox="0 0 4669 1265.8" enable-background="new 0 0 4669 1265.8" xml:space="preserve">
<g id="Layer_3">
	<rect x="36" y="32.8" fill="none" stroke="#000000" stroke-width="66" stroke-miterlimit="10" width="4600" height="1200"/>
	<rect x="33" y="33.8" stroke="#000000" stroke-width="66" stroke-miterlimit="10" width="1200" height="1200"/>
</g>
<g id="Layer_1">
	<g>
		<g>
			<path fill="#FFFFFF" d="M244.5,867.8V395.3h104.7c49.4,0,84.2,10.1,104.5,30.3c20.3,20.2,30.5,55.1,30.5,104.7v185.6
				c0,51.9-10.3,90.1-31,114.8c-20.7,24.7-55.5,37-104.5,37H244.5z M312,817.1h37.2c11.1,0,20.6-1,28.5-3c7.9-2,14.3-5.7,19.2-11.1
				c4.9-5.4,8.8-10.5,11.6-15.3c2.8-4.8,4.8-12.3,5.9-22.5c1.1-10.2,1.8-18.6,2-25.2c0.2-6.6,0.3-16.8,0.3-30.7c0-4.6,0-8,0-10.3
				V547.1c0-8.6,0-15.5-0.1-20.6c-0.1-5.1-0.4-11.1-0.8-18.1c-0.4-6.9-1.1-12.4-2-16.5c-0.9-4-2.1-8.6-3.7-13.6s-3.6-8.9-5.9-11.7
				c-2.4-2.8-5.3-5.8-8.7-8.8c-3.4-3.1-7.4-5.4-11.9-6.9c-4.5-1.5-9.7-2.7-15.7-3.7c-6-1-12.7-1.5-20-1.5H312V817.1z"/>
			<path fill="#FFFFFF" d="M652.9,872.5c-25.7,0-47.5-6.1-65.5-18.2c-18-12.1-31.3-28.5-39.8-49.2c-8.5-20.7-12.8-44.8-12.8-72.4
				V530.3c0-43.4,9.8-77.6,29.5-102.4c19.7-24.9,49.2-37.3,88.6-37.3c39.2,0,68.7,12.5,88.5,37.4c19.8,25,29.7,59.1,29.7,102.3
				v202.5c0,42.4-10.1,76.2-30.2,101.6C720.8,859.8,691.4,872.5,652.9,872.5z M652.9,817.1c33.8,0,50.6-28.1,50.6-84.4V530.3
				c0-9.5-0.4-18-1.1-25.4c-0.7-7.5-2.2-15-4.4-22.7c-2.2-7.6-5.1-14-8.7-19.1c-3.6-5.1-8.5-9.2-14.6-12.4
				c-6.2-3.2-13.4-4.7-21.9-4.7c-8.4,0-15.7,1.6-21.9,4.7c-6.2,3.2-11,7.3-14.6,12.4c-3.6,5.1-6.5,11.5-8.7,19.1
				c-2.2,7.6-3.7,15.2-4.4,22.7c-0.7,7.5-1.1,16-1.1,25.4v202.5c0,11.1,0.7,21.3,2.2,30.6c1.5,9.3,4,18.2,7.6,26.6
				c3.6,8.4,8.8,15.1,15.7,19.9C634.8,814.7,643.1,817.1,652.9,817.1z"/>
			<path fill="#FFFFFF" d="M944,872.5c-16.2,0-30.8-2.7-44-8.2s-24.3-12.9-33.4-22.4c-9.1-9.5-16.7-20.9-22.9-34.1
				c-6.2-13.3-10.8-27.6-13.6-43c-2.8-15.4-4.2-31.7-4.2-48.9V564c0-19.3,1.1-37.2,3.4-53.7c2.3-16.4,6.2-32.2,11.9-47.2
				c5.6-15,12.8-27.8,21.6-38.4c8.8-10.5,20.1-18.9,33.9-25c13.8-6.2,29.6-9.2,47.3-9.2c38,0,67.1,10.8,87.5,32.3
				c20.4,21.5,30.6,51.7,30.6,90.6h-67.5c0-22.5-3.7-39.4-10.9-50.6c-7.3-11.2-20.5-16.9-39.7-16.9c-33.8,0-50.6,33.8-50.6,101.3
				v67.5c13-22.5,35.5-33.8,67.5-33.8c19,0,35.2,3.3,48.6,9.9s23.9,16.2,31.4,28.7c7.5,12.6,12.9,26.7,16.2,42.3
				c3.3,15.6,5,33.7,5,54.1c0,22.1-2.2,42.4-6.6,60.8c-4.4,18.4-11.2,34.9-20.3,49.4c-9.1,14.6-21.4,26-36.9,34.1
				C982.9,868.4,964.8,872.5,944,872.5z M919.3,810c6.9,4.7,15.1,7.1,24.8,7.1c9.7,0,17.9-2.4,24.8-7.1s12.1-11.3,15.7-19.8
				c3.6-8.4,6.2-17.4,7.8-26.8c1.6-9.4,2.4-19.6,2.4-30.7c0-6.7,0-11.7,0-15.2s-0.1-8.3-0.4-14.6s-0.6-11.2-1.1-14.6
				c-0.4-3.4-1.1-7.8-1.8-13.1s-1.8-9.4-3-12.3c-1.2-2.9-2.8-6.3-4.6-10.3s-4-7-6.5-9.1c-2.5-2.1-5.3-4.2-8.4-6.3s-6.9-3.6-11.1-4.5
				c-4.2-0.9-8.8-1.3-13.7-1.3c-21.8,0-38.7,11.3-50.6,33.8v67.5c0,11.3,0.8,21.5,2.4,30.8c1.6,9.3,4.2,18.2,7.8,26.6
				C907.2,798.7,912.4,805.3,919.3,810z"/>
		</g>
	</g>
	<line fill="none" stroke="#FFFFFF" stroke-width="66" stroke-miterlimit="10" x1="1106" y1="326.8" x2="1106" y2="126.8"/>
	<line fill="none" stroke="#FFFFFF" stroke-width="66" stroke-miterlimit="10" x1="939" y1="159.8" x2="1139" y2="159.8"/>
	<line fill="none" stroke="#FFFFFF" stroke-width="66" stroke-miterlimit="10" x1="159" y1="940.8" x2="159" y2="1140.8"/>
	<line fill="none" stroke="#FFFFFF" stroke-width="66" stroke-miterlimit="10" x1="326" y1="1107.8" x2="126" y2="1107.8"/>
</g>
<g id="Layer_4">
	<g>
		<path d="M1691.5,895.6v-525h116.3c54.9,0,93.6,11.2,116.2,33.7c22.6,22.5,33.8,61.2,33.8,116.3v206.3
			c0,57.6-11.5,100.1-34.4,127.6c-23,27.4-61.7,41.2-116.2,41.2H1691.5z M1766.5,839.3h41.3c12.3,0,22.9-1.1,31.6-3.4
			c8.8-2.2,15.9-6.3,21.4-12.3c5.5-6,9.8-11.6,12.9-17c3.1-5.4,5.3-13.7,6.6-25c1.3-11.3,2-20.7,2.2-28c0.2-7.3,0.3-18.7,0.3-34.1
			c0-5.1,0-8.9,0-11.4V539.3c0-9.6-0.1-17.2-0.1-22.9c-0.1-5.7-0.4-12.4-0.9-20.1c-0.5-7.7-1.2-13.8-2.2-18.3
			c-1-4.5-2.3-9.5-4.1-15.1s-4-9.9-6.6-13c-2.6-3.1-5.9-6.4-9.7-9.8c-3.8-3.4-8.2-6-13.2-7.6c-5-1.7-10.8-3-17.4-4.1
			c-6.6-1.1-14.1-1.6-22.3-1.6h-39.8V839.3z"/>
		<path d="M1981.2,895.6l112.5-525h75l112.5,525h-75l-28.1-131.3h-93.8l-28.1,131.3H1981.2z M2093.7,708.1h75l-37.5-225
			L2093.7,708.1z"/>
		<path d="M2323.4,895.6v-525h93.8c55.9,0,97.9,10.8,126.3,32.5c28.3,21.7,42.5,57.7,42.5,108.1c0,31.3-5.6,57.4-16.7,78.5
			s-27.4,35.5-48.9,43.4l84.4,262.5h-74.4l-75.6-243.8h-56.3v243.8H2323.4z M2398.4,595.6h18.8c31.2,0,54.7-6.6,70.3-19.8
			c15.6-13.2,23.4-34.7,23.4-64.6s-7.8-51.4-23.4-64.6c-15.6-13.2-39.1-19.8-70.3-19.8h-18.8V595.6z"/>
		<path d="M2707.5,895.6l-93.8-525h75l37.5,243.8l19,150l18.5-150l37.5-243.8h75l37.5,243.8l18.5,150l19-150l37.5-243.8h75
			l-93.8,525h-75l-37.5-243.8l-18.8-150l-18.8,150l-37.5,243.8H2707.5z"/>
		<path d="M3108,895.6v-525h75v525H3108z"/>
		<path d="M3263.3,895.6v-525h56.3l131.3,324.6V370.6h75v525h-53.3l-134.2-349.2v349.2H3263.3z"/>
		<path d="M3722.7,900.8c-28.5,0-52.8-6.7-72.8-20.2c-20-13.5-34.8-31.7-44.2-54.6c-9.5-22.9-14.2-49.8-14.2-80.4v-225
			c0-48.2,10.9-86.2,32.8-113.8c21.9-27.6,54.7-41.5,98.4-41.5c43.6,0,76.3,13.9,98.3,41.6c22,27.7,33,65.6,33,113.7v225
			c0,47.1-11.2,84.7-33.5,112.9C3798,886.7,3765.4,900.8,3722.7,900.8z M3722.7,839.3c37.5,0,56.3-31.2,56.3-93.8v-225
			c0-10.5-0.4-20-1.2-28.3c-0.8-8.3-2.4-16.7-4.8-25.2c-2.4-8.5-5.7-15.6-9.7-21.2c-4-5.7-9.4-10.3-16.3-13.8
			c-6.8-3.5-14.9-5.3-24.3-5.3s-17.5,1.8-24.3,5.3c-6.8,3.5-12.3,8.1-16.3,13.8c-4,5.7-7.2,12.7-9.7,21.2
			c-2.4,8.5-4.1,16.9-4.8,25.2c-0.8,8.3-1.2,17.7-1.2,28.3v225c0,12.3,0.8,23.6,2.5,34c1.7,10.4,4.5,20.2,8.5,29.6
			c4,9.4,9.8,16.8,17.4,22.1C3702.4,836.6,3711.7,839.3,3722.7,839.3z"/>
		<path d="M4046.1,900.8c-18,0-34.3-3-48.9-9.1s-27-14.4-37.1-24.9c-10.1-10.5-18.6-23.2-25.5-37.9c-6.9-14.7-12-30.7-15.1-47.8
			c-3.1-17.1-4.7-35.2-4.7-54.3V558.1c0-21.5,1.3-41.4,3.8-59.6c2.5-18.3,6.9-35.7,13.2-52.4c6.2-16.7,14.3-30.9,24-42.6
			c9.8-11.7,22.3-21,37.6-27.8c15.3-6.8,32.9-10.3,52.6-10.3c42.2,0,74.6,12,97.3,35.9c22.7,23.9,34,57.5,34,100.6h-75
			c0-25-4.1-43.7-12.2-56.3c-8.1-12.5-22.8-18.8-44.1-18.8c-37.5,0-56.3,37.5-56.3,112.5v75c14.5-25,39.5-37.5,75-37.5
			c21.1,0,39.1,3.7,54.1,11s26.6,18,34.9,31.9c8.3,14,14.3,29.6,18,47c3.7,17.4,5.6,37.4,5.6,60.1c0,24.6-2.4,47.1-7.3,67.5
			c-4.9,20.4-12.4,38.7-22.6,54.9c-10.2,16.2-23.8,28.9-41,37.9C4089.3,896.3,4069.1,900.8,4046.1,900.8z M4018.6,831.4
			c7.6,5.3,16.8,7.9,27.5,7.9c10.7,0,19.9-2.6,27.5-7.9s13.4-12.6,17.4-22c4-9.4,6.9-19.3,8.6-29.7c1.8-10.4,2.6-21.8,2.6-34.1
			c0-7.4,0-13,0-16.8s-0.1-9.2-0.4-16.3s-0.7-12.5-1.2-16.3c-0.5-3.8-1.2-8.6-2.1-14.5s-2-10.4-3.4-13.6c-1.4-3.2-3.1-7-5.1-11.4
			s-4.4-7.8-7.2-10.1c-2.7-2.3-5.9-4.7-9.4-7s-7.6-4-12.3-5c-4.7-1-9.8-1.5-15.2-1.5c-24.2,0-43,12.5-56.3,37.5v75
			c0,12.5,0.9,23.9,2.6,34.3c1.8,10.4,4.6,20.2,8.6,29.6C4005.1,818.8,4010.9,826.1,4018.6,831.4z"/>
	</g>
</g>
</svg>
